{
  "asset": {
    "generator": "gltf Exporter for Unity3d",
    "version": "1.0.0"
  },
  "scene": "scene-test-rotation",
  "accessors": {
    "accessor_position_Cube_internal": {
      "name": "position",
      "bufferView": "bufview_vb_Cube_internal",
      "byteOffset": 0,
      "byteStride": 56,
      "componentType": 5126,
      "count": 24,
      "type": "VEC3",
      "min": [
        -0.5,
        -0.5,
        -0.5
      ],
      "max": [
        0.5,
        0.5,
        0.5
      ]
    },
    "accessor_normal_Cube_internal": {
      "name": "normal",
      "bufferView": "bufview_vb_Cube_internal",
      "byteOffset": 12,
      "byteStride": 56,
      "componentType": 5126,
      "count": 24,
      "type": "VEC3"
    },
    "accessor_tangent_Cube_internal": {
      "name": "tangent",
      "bufferView": "bufview_vb_Cube_internal",
      "byteOffset": 24,
      "byteStride": 56,
      "componentType": 5126,
      "count": 24,
      "type": "VEC4"
    },
    "accessor_uv0_Cube_internal": {
      "name": "uv0",
      "bufferView": "bufview_vb_Cube_internal",
      "byteOffset": 40,
      "byteStride": 56,
      "componentType": 5126,
      "count": 24,
      "type": "VEC2"
    },
    "accessor_uv1_Cube_internal": {
      "name": "uv1",
      "bufferView": "bufview_vb_Cube_internal",
      "byteOffset": 48,
      "byteStride": 56,
      "componentType": 5126,
      "count": 24,
      "type": "VEC2"
    },
    "accessor_indices0_Cube_internal": {
      "name": "indices0",
      "bufferView": "bufview_ib0_Cube_internal",
      "byteOffset": 0,
      "componentType": 5123,
      "count": 36,
      "type": "SCALAR"
    },
    "accessor_position_Plane_internal": {
      "name": "position",
      "bufferView": "bufview_vb_Plane_internal",
      "byteOffset": 0,
      "byteStride": 48,
      "componentType": 5126,
      "count": 121,
      "type": "VEC3",
      "min": [
        -5.0,
        -1.110223E-16,
        -5.0
      ],
      "max": [
        5.0,
        1.110223E-16,
        5.0
      ]
    },
    "accessor_normal_Plane_internal": {
      "name": "normal",
      "bufferView": "bufview_vb_Plane_internal",
      "byteOffset": 12,
      "byteStride": 48,
      "componentType": 5126,
      "count": 121,
      "type": "VEC3"
    },
    "accessor_tangent_Plane_internal": {
      "name": "tangent",
      "bufferView": "bufview_vb_Plane_internal",
      "byteOffset": 24,
      "byteStride": 48,
      "componentType": 5126,
      "count": 121,
      "type": "VEC4"
    },
    "accessor_uv0_Plane_internal": {
      "name": "uv0",
      "bufferView": "bufview_vb_Plane_internal",
      "byteOffset": 40,
      "byteStride": 48,
      "componentType": 5126,
      "count": 121,
      "type": "VEC2"
    },
    "accessor_indices0_Plane_internal": {
      "name": "indices0",
      "bufferView": "bufview_ib0_Plane_internal",
      "byteOffset": 0,
      "componentType": 5123,
      "count": 600,
      "type": "SCALAR"
    }
  },
  "buffers": {
    "buf_Cube_internal": {
      "name": "Cube",
      "uri": "buffers/Cube_internal.bin",
      "byteLength": 1416
    },
    "buf_Plane_internal": {
      "name": "Plane",
      "uri": "buffers/Plane_internal.bin",
      "byteLength": 7008
    }
  },
  "bufferViews": {
    "bufview_vb_Cube_internal": {
      "name": "vb",
      "buffer": "buf_Cube_internal",
      "byteOffset": 0,
      "byteLength": 1344,
      "target": 34962
    },
    "bufview_ib0_Cube_internal": {
      "name": "ib0",
      "buffer": "buf_Cube_internal",
      "byteOffset": 1344,
      "byteLength": 72,
      "target": 34963
    },
    "bufview_vb_Plane_internal": {
      "name": "vb",
      "buffer": "buf_Plane_internal",
      "byteOffset": 0,
      "byteLength": 5808,
      "target": 34962
    },
    "bufview_ib0_Plane_internal": {
      "name": "ib0",
      "buffer": "buf_Plane_internal",
      "byteOffset": 5808,
      "byteLength": 1200,
      "target": 34963
    }
  },
  "cameras": {
    "main-camera_27216": {
      "name": "main-camera",
      "type": "perspective",
      "perspective": {
        "yfov": 60.0,
        "zfar": 1000.0,
        "znear": 0.3
      }
    }
  },
  "images": {
    "image_ash_uvgrid_01_dd771f81d17af4a44b5b5fe59765f592": {
      "name": "ash_uvgrid_01",
      "uri": "images/ash_uvgrid_01_dd771f81d17af4a44b5b5fe59765f592.jpg"
    },
    "image_checker_dir_02_c5f0d5134f1cf48e7920f15b89fbd266": {
      "name": "checker_dir_02",
      "uri": "images/checker_dir_02_c5f0d5134f1cf48e7920f15b89fbd266.jpg"
    },
    "image_ash_uvgrid_07_99b45b3a2b72749fe996a70b4cfc067a": {
      "name": "ash_uvgrid_07",
      "uri": "images/ash_uvgrid_07_99b45b3a2b72749fe996a70b4cfc067a.jpg"
    },
    "image_checker_03_8879e64b371e04d2b9fd0e42cc423838": {
      "name": "checker_03",
      "uri": "images/checker_03_8879e64b371e04d2b9fd0e42cc423838.jpg"
    }
  },
  "materials": {
    "rot-x_643c12d5de5d34462ae1553ab930c5f1": {
      "name": "rot-x",
      "technique": "diffuse",
      "values": {
        "color": [
          1.0,
          1.0,
          1.0,
          1.0
        ],
        "mainTexture": "ash_uvgrid_01_dd771f81d17af4a44b5b5fe59765f592",
        "mainTextureOffset": [
          0.0,
          0.0
        ],
        "mainTextureTiling": [
          1.0,
          1.0
        ]
      }
    },
    "rot-y_102b6484aecb144cba669269e37d3bb3": {
      "name": "rot-y",
      "technique": "diffuse",
      "values": {
        "color": [
          1.0,
          1.0,
          1.0,
          1.0
        ],
        "mainTexture": "checker_dir_02_c5f0d5134f1cf48e7920f15b89fbd266",
        "mainTextureOffset": [
          0.0,
          0.0
        ],
        "mainTextureTiling": [
          1.0,
          1.0
        ]
      }
    },
    "rot-z_0bce6d60c10b14d499e84ffbf9bb7aea": {
      "name": "rot-z",
      "technique": "diffuse",
      "values": {
        "color": [
          1.0,
          1.0,
          1.0,
          1.0
        ],
        "mainTexture": "ash_uvgrid_07_99b45b3a2b72749fe996a70b4cfc067a",
        "mainTextureOffset": [
          0.0,
          0.0
        ],
        "mainTextureTiling": [
          1.0,
          1.0
        ]
      }
    },
    "simple_a444ecd1a832a4a8190f94d72a069ff5": {
      "name": "simple",
      "technique": "diffuse",
      "values": {
        "color": [
          1.0,
          1.0,
          1.0,
          1.0
        ],
        "mainTexture": "checker_03_8879e64b371e04d2b9fd0e42cc423838",
        "mainTextureOffset": [
          0.0,
          0.0
        ],
        "mainTextureTiling": [
          1.0,
          1.0
        ]
      }
    }
  },
  "meshes": {
    "Cube_internal_0": {
      "name": "Cube",
      "primitives": [
        {
          "attributes": {
            "POSITION": "accessor_position_Cube_internal",
            "NORMAL": "accessor_normal_Cube_internal",
            "TANGENT": "accessor_tangent_Cube_internal",
            "TEXCOORD_0": "accessor_uv0_Cube_internal",
            "TEXCOORD_1": "accessor_uv1_Cube_internal"
          },
          "indices": "accessor_indices0_Cube_internal",
          "material": "rot-x_643c12d5de5d34462ae1553ab930c5f1"
        }
      ]
    },
    "Cube_internal_1": {
      "name": "Cube",
      "primitives": [
        {
          "attributes": {
            "POSITION": "accessor_position_Cube_internal",
            "NORMAL": "accessor_normal_Cube_internal",
            "TANGENT": "accessor_tangent_Cube_internal",
            "TEXCOORD_0": "accessor_uv0_Cube_internal",
            "TEXCOORD_1": "accessor_uv1_Cube_internal"
          },
          "indices": "accessor_indices0_Cube_internal",
          "material": "rot-y_102b6484aecb144cba669269e37d3bb3"
        }
      ]
    },
    "Cube_internal_2": {
      "name": "Cube",
      "primitives": [
        {
          "attributes": {
            "POSITION": "accessor_position_Cube_internal",
            "NORMAL": "accessor_normal_Cube_internal",
            "TANGENT": "accessor_tangent_Cube_internal",
            "TEXCOORD_0": "accessor_uv0_Cube_internal",
            "TEXCOORD_1": "accessor_uv1_Cube_internal"
          },
          "indices": "accessor_indices0_Cube_internal",
          "material": "rot-z_0bce6d60c10b14d499e84ffbf9bb7aea"
        }
      ]
    },
    "Plane_internal_3": {
      "name": "Plane",
      "primitives": [
        {
          "attributes": {
            "POSITION": "accessor_position_Plane_internal",
            "NORMAL": "accessor_normal_Plane_internal",
            "TANGENT": "accessor_tangent_Plane_internal",
            "TEXCOORD_0": "accessor_uv0_Plane_internal"
          },
          "indices": "accessor_indices0_Plane_internal",
          "material": "simple_a444ecd1a832a4a8190f94d72a069ff5"
        }
      ]
    }
  },
  "nodes": {
    "cube-rot-x_27198": {
      "name": "cube-rot-x",
      "translation": [
        3.0,
        2.0,
        -2.0
      ],
      "rotation": [
        -0.173648164,
        0.0,
        0.0,
        0.9848078
      ],
      "scale": [
        0.5,
        0.5,
        0.5
      ],
      "meshes": [
        "Cube_internal_0"
      ]
    },
    "cube-rot-y_27178": {
      "name": "cube-rot-y",
      "translation": [
        0.0,
        2.0,
        -2.0
      ],
      "rotation": [
        0.0,
        -0.173648164,
        0.0,
        0.9848078
      ],
      "scale": [
        0.5,
        0.5,
        0.5
      ],
      "meshes": [
        "Cube_internal_1"
      ]
    },
    "cube-rot-z_27188": {
      "name": "cube-rot-z",
      "translation": [
        -3.0,
        2.0,
        -2.0
      ],
      "rotation": [
        0.0,
        0.0,
        0.173648164,
        0.9848078
      ],
      "scale": [
        0.5,
        0.5,
        0.5
      ],
      "meshes": [
        "Cube_internal_2"
      ]
    },
    "main-camera_27208": {
      "name": "main-camera",
      "translation": [
        6.79893541,
        5.302683,
        -6.675444
      ],
      "rotation": [
        -0.0946223959,
        0.8890103,
        0.21361959,
        0.3937943
      ],
      "camera": "main-camera_27216"
    },
    "plane_27170": {
      "name": "plane",
      "meshes": [
        "Plane_internal_3"
      ]
    },
    "sun_27164": {
      "name": "sun",
      "translation": [
        2.16,
        6.58,
        3.74
      ],
      "rotation": [
        -0.408217877,
        0.234569684,
        0.109381631,
        0.8754261
      ]
    }
  },
  "samplers": {
    "sampler_1122": {
      "minFilter": 9729
    }
  },
  "scenes": {
    "scene-test-rotation": {
      "name": "scene-test-rotation",
      "nodes": [
        "cube-rot-x_27198",
        "cube-rot-y_27178",
        "cube-rot-z_27188",
        "main-camera_27208",
        "plane_27170",
        "sun_27164"
      ]
    }
  },
  "textures": {
    "ash_uvgrid_01_dd771f81d17af4a44b5b5fe59765f592": {
      "name": "ash_uvgrid_01",
      "sampler": "sampler_1122",
      "source": "image_ash_uvgrid_01_dd771f81d17af4a44b5b5fe59765f592"
    },
    "checker_dir_02_c5f0d5134f1cf48e7920f15b89fbd266": {
      "name": "checker_dir_02",
      "sampler": "sampler_1122",
      "source": "image_checker_dir_02_c5f0d5134f1cf48e7920f15b89fbd266"
    },
    "ash_uvgrid_07_99b45b3a2b72749fe996a70b4cfc067a": {
      "name": "ash_uvgrid_07",
      "sampler": "sampler_1122",
      "source": "image_ash_uvgrid_07_99b45b3a2b72749fe996a70b4cfc067a"
    },
    "checker_03_8879e64b371e04d2b9fd0e42cc423838": {
      "name": "checker_03",
      "sampler": "sampler_1122",
      "source": "image_checker_03_8879e64b371e04d2b9fd0e42cc423838"
    }
  }
}